<svg xmlns="http://www.w3.org/2000/svg" width="1600" height="400" viewBox="0 0 1600 400" role="img" aria-labelledby="title desc">
  <title id="title">UniSage logo</title>
  <desc id="desc">An open book shaped like a U with a gold knowledge spark, beside the UniSage wordmark.</desc>
  <path fill="#173F9E" d="M64 74 184 104v154c-40-24-80-32-120-24V74Z"/>
  <path fill="#1672B8" d="m208 104 120-30v160c-40-8-80 0-120 24V104Z"/>
  <path fill="#0D2F7A" d="M64 234c52-10 95 5 132 43 37-38 80-53 132-43v34c-48-7-88 10-120 53h-24c-32-43-72-60-120-53v-34Z"/>
  <path fill="#FFFFFF" d="M184 104h24v154l-12 12-12-12V104Z"/>
  <path fill="#F6B719" d="m196 35 10 24 24 10-24 10-10 24-10-24-24-10 24-10 10-24Z"/>
  <circle cx="151" cy="49" r="7" fill="#F6B719"/>
  <circle cx="241" cy="49" r="7" fill="#F6B719"/>
  <g font-family="Aptos Display, Segoe UI, sans-serif">
    <text x="395" y="224" fill="#173F9E" font-size="142" font-weight="800" letter-spacing="-5">Uni</text>
    <text x="610" y="224" fill="#1672B8" font-size="142" font-weight="700" letter-spacing="-5">Sage</text>
    <rect x="402" y="264" width="72" height="7" rx="3.5" fill="#F6B719"/>
    <text x="498" y="282" fill="#35506D" font-size="34" font-weight="650" letter-spacing="5">SECURE ACADEMIC KNOWLEDGE</text>
  </g>
</svg>
